<mxfile host="Electron" agent="Mozilla/5.0 (Windows NT 10.0; Win64; x64) AppleWebKit/537.36 (KHTML, like Gecko) draw.io/25.0.2 Chrome/128.0.6613.186 Electron/32.2.5 Safari/537.36" version="25.0.2">
  <diagram name="Página-1" id="zeI3HEk-9TXA7r3St5eM">
    <mxGraphModel dx="2122" dy="1937" grid="1" gridSize="10" guides="1" tooltips="1" connect="1" arrows="1" fold="1" page="1" pageScale="1" pageWidth="827" pageHeight="1169" math="0" shadow="0">
      <root>
        <mxCell id="0" />
        <mxCell id="1" parent="0" />
        <mxCell id="Iq8-FVFfVCKzZe5Q5yPX-4" style="edgeStyle=orthogonalEdgeStyle;rounded=0;orthogonalLoop=1;jettySize=auto;html=1;entryX=0.504;entryY=0.243;entryDx=0;entryDy=0;entryPerimeter=0;" edge="1" parent="1" source="Iq8-FVFfVCKzZe5Q5yPX-2" target="Iq8-FVFfVCKzZe5Q5yPX-3">
          <mxGeometry relative="1" as="geometry" />
        </mxCell>
        <mxCell id="Iq8-FVFfVCKzZe5Q5yPX-2" value="&lt;font style=&quot;font-size: 15px;&quot;&gt;inicio&lt;/font&gt;" style="rounded=1;whiteSpace=wrap;html=1;" vertex="1" parent="1">
          <mxGeometry x="339" y="-460" width="120" height="60" as="geometry" />
        </mxCell>
        <mxCell id="Iq8-FVFfVCKzZe5Q5yPX-31" value="" style="edgeStyle=orthogonalEdgeStyle;rounded=0;orthogonalLoop=1;jettySize=auto;html=1;" edge="1" parent="1" source="Iq8-FVFfVCKzZe5Q5yPX-3" target="Iq8-FVFfVCKzZe5Q5yPX-30">
          <mxGeometry relative="1" as="geometry" />
        </mxCell>
        <mxCell id="Iq8-FVFfVCKzZe5Q5yPX-3" value="n1, n2, n3" style="html=1;strokeWidth=2;shape=manualInput;whiteSpace=wrap;rounded=1;size=26;arcSize=11;" vertex="1" parent="1">
          <mxGeometry x="349" y="-170" width="100" height="60" as="geometry" />
        </mxCell>
        <mxCell id="Iq8-FVFfVCKzZe5Q5yPX-8" value="" style="edgeStyle=orthogonalEdgeStyle;rounded=0;orthogonalLoop=1;jettySize=auto;html=1;entryX=0.5;entryY=0;entryDx=0;entryDy=0;" edge="1" parent="1" source="Iq8-FVFfVCKzZe5Q5yPX-5" target="Iq8-FVFfVCKzZe5Q5yPX-10">
          <mxGeometry relative="1" as="geometry">
            <mxPoint x="190" y="560" as="targetPoint" />
            <Array as="points">
              <mxPoint x="292" y="430" />
              <mxPoint x="292" y="431" />
              <mxPoint x="190" y="431" />
            </Array>
          </mxGeometry>
        </mxCell>
        <mxCell id="Iq8-FVFfVCKzZe5Q5yPX-19" value="" style="edgeStyle=orthogonalEdgeStyle;rounded=0;orthogonalLoop=1;jettySize=auto;html=1;" edge="1" parent="1" source="Iq8-FVFfVCKzZe5Q5yPX-5" target="Iq8-FVFfVCKzZe5Q5yPX-18">
          <mxGeometry relative="1" as="geometry" />
        </mxCell>
        <mxCell id="Iq8-FVFfVCKzZe5Q5yPX-5" value="n1 &amp;gt; n2&amp;nbsp;&lt;div&gt;&lt;br&gt;&lt;/div&gt;" style="rhombus;whiteSpace=wrap;html=1;strokeWidth=2;rounded=1;arcSize=11;" vertex="1" parent="1">
          <mxGeometry x="339" y="370" width="150" height="120" as="geometry" />
        </mxCell>
        <mxCell id="Iq8-FVFfVCKzZe5Q5yPX-9" value="SIM" style="text;html=1;align=center;verticalAlign=middle;whiteSpace=wrap;rounded=0;" vertex="1" parent="1">
          <mxGeometry x="270" y="400" width="60" height="30" as="geometry" />
        </mxCell>
        <mxCell id="Iq8-FVFfVCKzZe5Q5yPX-13" value="" style="edgeStyle=orthogonalEdgeStyle;rounded=0;orthogonalLoop=1;jettySize=auto;html=1;" edge="1" parent="1" source="Iq8-FVFfVCKzZe5Q5yPX-10" target="Iq8-FVFfVCKzZe5Q5yPX-12">
          <mxGeometry relative="1" as="geometry" />
        </mxCell>
        <mxCell id="Iq8-FVFfVCKzZe5Q5yPX-15" value="" style="edgeStyle=orthogonalEdgeStyle;rounded=0;orthogonalLoop=1;jettySize=auto;html=1;" edge="1" parent="1" source="Iq8-FVFfVCKzZe5Q5yPX-10" target="Iq8-FVFfVCKzZe5Q5yPX-14">
          <mxGeometry relative="1" as="geometry" />
        </mxCell>
        <mxCell id="Iq8-FVFfVCKzZe5Q5yPX-10" value="n1 &amp;gt; n3" style="rhombus;whiteSpace=wrap;html=1;" vertex="1" parent="1">
          <mxGeometry x="130" y="570" width="120" height="120" as="geometry" />
        </mxCell>
        <mxCell id="Iq8-FVFfVCKzZe5Q5yPX-25" style="edgeStyle=orthogonalEdgeStyle;rounded=0;orthogonalLoop=1;jettySize=auto;html=1;entryX=0;entryY=0.75;entryDx=0;entryDy=0;" edge="1" parent="1" source="Iq8-FVFfVCKzZe5Q5yPX-12" target="Iq8-FVFfVCKzZe5Q5yPX-23">
          <mxGeometry relative="1" as="geometry">
            <Array as="points">
              <mxPoint x="-10" y="820" />
              <mxPoint x="225" y="820" />
              <mxPoint x="225" y="875" />
            </Array>
          </mxGeometry>
        </mxCell>
        <mxCell id="Iq8-FVFfVCKzZe5Q5yPX-12" value="&quot;n1 é maior&quot;" style="shape=document;whiteSpace=wrap;html=1;boundedLbl=1;" vertex="1" parent="1">
          <mxGeometry x="-70" y="590" width="120" height="80" as="geometry" />
        </mxCell>
        <mxCell id="Iq8-FVFfVCKzZe5Q5yPX-20" value="" style="edgeStyle=orthogonalEdgeStyle;rounded=0;orthogonalLoop=1;jettySize=auto;html=1;entryX=0.5;entryY=1;entryDx=0;entryDy=0;" edge="1" parent="1" source="Iq8-FVFfVCKzZe5Q5yPX-14" target="Iq8-FVFfVCKzZe5Q5yPX-18">
          <mxGeometry relative="1" as="geometry" />
        </mxCell>
        <mxCell id="Iq8-FVFfVCKzZe5Q5yPX-14" value="&quot;caso não, voltrar as opções&quot;" style="shape=document;whiteSpace=wrap;html=1;boundedLbl=1;" vertex="1" parent="1">
          <mxGeometry x="330" y="590" width="120" height="80" as="geometry" />
        </mxCell>
        <mxCell id="Iq8-FVFfVCKzZe5Q5yPX-22" value="" style="edgeStyle=orthogonalEdgeStyle;rounded=0;orthogonalLoop=1;jettySize=auto;html=1;" edge="1" parent="1" source="Iq8-FVFfVCKzZe5Q5yPX-18" target="Iq8-FVFfVCKzZe5Q5yPX-21">
          <mxGeometry relative="1" as="geometry" />
        </mxCell>
        <mxCell id="Iq8-FVFfVCKzZe5Q5yPX-18" value="n2 &amp;gt; n3" style="rhombus;whiteSpace=wrap;html=1;strokeWidth=2;rounded=1;arcSize=11;" vertex="1" parent="1">
          <mxGeometry x="604" y="370" width="146" height="120" as="geometry" />
        </mxCell>
        <mxCell id="Iq8-FVFfVCKzZe5Q5yPX-24" value="" style="edgeStyle=orthogonalEdgeStyle;rounded=0;orthogonalLoop=1;jettySize=auto;html=1;entryX=1;entryY=0.75;entryDx=0;entryDy=0;" edge="1" parent="1" source="Iq8-FVFfVCKzZe5Q5yPX-21" target="Iq8-FVFfVCKzZe5Q5yPX-23">
          <mxGeometry relative="1" as="geometry">
            <Array as="points">
              <mxPoint x="730" y="740" />
              <mxPoint x="730" y="860" />
              <mxPoint x="520" y="860" />
            </Array>
          </mxGeometry>
        </mxCell>
        <mxCell id="Iq8-FVFfVCKzZe5Q5yPX-21" value="&quot;n3 é o maior&quot;" style="shape=document;whiteSpace=wrap;html=1;boundedLbl=1;strokeWidth=2;rounded=1;arcSize=11;" vertex="1" parent="1">
          <mxGeometry x="790" y="700" width="120" height="80" as="geometry" />
        </mxCell>
        <mxCell id="Iq8-FVFfVCKzZe5Q5yPX-23" value="FIM" style="whiteSpace=wrap;html=1;strokeWidth=2;rounded=1;arcSize=11;" vertex="1" parent="1">
          <mxGeometry x="400" y="830" width="120" height="60" as="geometry" />
        </mxCell>
        <mxCell id="Iq8-FVFfVCKzZe5Q5yPX-26" value="NÃO" style="text;html=1;align=center;verticalAlign=middle;whiteSpace=wrap;rounded=0;" vertex="1" parent="1">
          <mxGeometry x="510" y="400" width="60" height="30" as="geometry" />
        </mxCell>
        <mxCell id="Iq8-FVFfVCKzZe5Q5yPX-27" value="SIM" style="text;html=1;align=center;verticalAlign=middle;whiteSpace=wrap;rounded=0;" vertex="1" parent="1">
          <mxGeometry x="70" y="600" width="60" height="30" as="geometry" />
        </mxCell>
        <mxCell id="Iq8-FVFfVCKzZe5Q5yPX-28" value="NÃO" style="text;html=1;align=center;verticalAlign=middle;whiteSpace=wrap;rounded=0;" vertex="1" parent="1">
          <mxGeometry x="250" y="600" width="60" height="30" as="geometry" />
        </mxCell>
        <mxCell id="Iq8-FVFfVCKzZe5Q5yPX-32" style="edgeStyle=orthogonalEdgeStyle;rounded=0;orthogonalLoop=1;jettySize=auto;html=1;" edge="1" parent="1" source="Iq8-FVFfVCKzZe5Q5yPX-30" target="Iq8-FVFfVCKzZe5Q5yPX-5">
          <mxGeometry relative="1" as="geometry" />
        </mxCell>
        <mxCell id="Iq8-FVFfVCKzZe5Q5yPX-36" value="" style="edgeStyle=orthogonalEdgeStyle;rounded=0;orthogonalLoop=1;jettySize=auto;html=1;" edge="1" parent="1" source="Iq8-FVFfVCKzZe5Q5yPX-30" target="Iq8-FVFfVCKzZe5Q5yPX-35">
          <mxGeometry relative="1" as="geometry" />
        </mxCell>
        <mxCell id="Iq8-FVFfVCKzZe5Q5yPX-30" value="&lt;font style=&quot;font-size: 13px;&quot;&gt;n1 == n2&amp;nbsp;&lt;/font&gt;&lt;div&gt;&lt;font style=&quot;font-size: 13px;&quot;&gt;e&amp;nbsp;&lt;/font&gt;&lt;/div&gt;&lt;div&gt;&lt;font style=&quot;font-size: 13px;&quot;&gt;n2 == n3&lt;/font&gt;&lt;/div&gt;&lt;div&gt;&lt;font style=&quot;font-size: 13px;&quot;&gt;e&lt;/font&gt;&lt;/div&gt;&lt;div&gt;&lt;font style=&quot;font-size: 13px;&quot;&gt;n3 == n1&lt;/font&gt;&lt;/div&gt;" style="rhombus;whiteSpace=wrap;html=1;strokeWidth=2;rounded=1;arcSize=11;" vertex="1" parent="1">
          <mxGeometry y="-40" width="201" height="210" as="geometry" />
        </mxCell>
        <mxCell id="Iq8-FVFfVCKzZe5Q5yPX-33" value="NÃO" style="text;html=1;align=center;verticalAlign=middle;whiteSpace=wrap;rounded=0;" vertex="1" parent="1">
          <mxGeometry x="250" y="30" width="60" height="30" as="geometry" />
        </mxCell>
        <mxCell id="Iq8-FVFfVCKzZe5Q5yPX-37" style="edgeStyle=orthogonalEdgeStyle;rounded=0;orthogonalLoop=1;jettySize=auto;html=1;entryX=0;entryY=0.5;entryDx=0;entryDy=0;" edge="1" parent="1" source="Iq8-FVFfVCKzZe5Q5yPX-35" target="Iq8-FVFfVCKzZe5Q5yPX-2">
          <mxGeometry relative="1" as="geometry">
            <Array as="points">
              <mxPoint x="-181" y="-410" />
              <mxPoint x="109" y="-410" />
              <mxPoint x="109" y="-430" />
            </Array>
          </mxGeometry>
        </mxCell>
        <mxCell id="Iq8-FVFfVCKzZe5Q5yPX-35" value="&quot;voltar ao inicio e escolher outro numero&quot;" style="shape=document;whiteSpace=wrap;html=1;boundedLbl=1;strokeWidth=2;rounded=1;arcSize=11;" vertex="1" parent="1">
          <mxGeometry x="-240.5" y="25" width="120" height="80" as="geometry" />
        </mxCell>
        <mxCell id="Iq8-FVFfVCKzZe5Q5yPX-38" value="SIM" style="text;html=1;align=center;verticalAlign=middle;whiteSpace=wrap;rounded=0;" vertex="1" parent="1">
          <mxGeometry x="-90" y="30" width="60" height="30" as="geometry" />
        </mxCell>
      </root>
    </mxGraphModel>
  </diagram>
</mxfile>
